<?xml version="1.0" standalone="no"?>
<!DOCTYPE svg PUBLIC "-//W3C//DTD SVG 20010904//EN"
 "http://www.w3.org/TR/2001/REC-SVG-20010904/DTD/svg10.dtd">
<svg version="1.0" xmlns="http://www.w3.org/2000/svg"
 width="1200.000000pt" height="1200.000000pt" viewBox="0 0 1200.000000 1200.000000"
 preserveAspectRatio="xMidYMid meet">
<g transform="translate(0.000000,1200.000000) scale(0.100000,-0.100000)"
fill="#000000" stroke="none">
<path d="M5602 11970 c-499 -33 -1003 -132 -1487 -291 -1150 -379 -2182 -1126
-2915 -2109 -770 -1034 -1180 -2277 -1180 -3579 0 -1188 344 -2322 1003 -3311
857 -1286 2188 -2197 3687 -2524 109 -23 329 -66 343 -66 4 0 7 941 7 2090 l0
2090 -755 0 -755 0 0 870 0 870 754 0 755 0 3 788 c4 747 5 795 27 949 109
792 484 1354 1106 1658 231 113 487 185 786 221 261 32 744 17 1224 -37 207
-23 443 -57 456 -65 5 -3 9 -320 9 -739 l0 -733 -472 -5 c-437 -4 -480 -6
-571 -26 -348 -77 -559 -267 -646 -584 -37 -134 -41 -213 -41 -828 l0 -599
824 0 c454 0 827 -3 829 -7 3 -6 -253 -1689 -262 -1730 -1 -2 -314 -3 -696 -3
l-695 0 0 -2090 c0 -1149 4 -2090 8 -2090 27 0 311 57 450 90 799 193 1522
532 2187 1028 385 288 737 625 1043 998 695 850 1147 1879 1297 2955 45 323
50 415 50 844 -1 415 -6 507 -46 800 -220 1631 -1109 3104 -2454 4066 -538
385 -1192 702 -1805 875 -201 57 -219 61 -340 88 -256 57 -467 91 -760 122
-164 17 -781 26 -968 14z"/>
</g>
</svg>
