<?xml version="1.0" standalone="no"?>
<!DOCTYPE svg PUBLIC "-//W3C//DTD SVG 20010904//EN"
 "http://www.w3.org/TR/2001/REC-SVG-20010904/DTD/svg10.dtd">
<svg version="1.0" xmlns="http://www.w3.org/2000/svg"
 width="1556.000000pt" height="1587.000000pt" viewBox="0 0 1556.000000 1587.000000"
 preserveAspectRatio="xMidYMid meet">
<g transform="translate(0.000000,1587.000000) scale(0.100000,-0.100000)"
fill="#000000" stroke="none">
<path d="M7490 15864 c-597 -33 -1312 -159 -1868 -330 -777 -237 -1531 -602
-2192 -1059 -563 -390 -1086 -860 -1511 -1357 -193 -226 -239 -284 -441 -559
-193 -262 -512 -787 -611 -1002 l-25 -55 506 -394 c279 -216 853 -662 1276
-992 424 -329 775 -600 781 -602 6 -3 33 55 63 136 379 1016 1098 1893 2012
2453 612 374 1289 602 2005 673 198 20 664 23 860 5 609 -54 1128 -201 1667
-471 288 -145 593 -351 861 -583 65 -56 122 -102 127 -102 9 0 100 86 411 389
113 111 360 352 550 536 371 362 608 593 899 877 102 100 232 226 289 280
l104 99 -129 115 c-536 480 -1148 890 -1784 1197 -849 408 -1714 640 -2735
732 -115 11 -981 21 -1115 14z"/>
<path d="M7930 7915 l0 -1475 2186 0 2187 0 -7 -52 c-31 -238 -138 -598 -258
-863 -282 -628 -701 -1157 -1235 -1562 -62 -47 -113 -89 -113 -92 0 -3 123
-100 272 -216 288 -222 710 -549 944 -731 77 -60 306 -237 508 -394 202 -157
461 -358 574 -446 l207 -162 153 152 c1254 1238 1996 2890 2171 4831 58 642
47 1395 -29 1940 -20 141 -58 352 -86 478 l-16 67 -3729 0 -3729 0 0 -1475z"/>
</g>
</svg>
