<?xml version="1.0" standalone="no"?>
<!DOCTYPE svg PUBLIC "-//W3C//DTD SVG 20010904//EN"
 "http://www.w3.org/TR/2001/REC-SVG-20010904/DTD/svg10.dtd">
<svg version="1.0" xmlns="http://www.w3.org/2000/svg"
 width="2100.000000pt" height="1500.000000pt" viewBox="0 0 2100.000000 1500.000000"
 preserveAspectRatio="xMidYMid meet">
<g transform="translate(0.000000,1500.000000) scale(0.100000,-0.100000)"
fill="#000000" stroke="none">
<path d="M10277 10610 c-513 -144 -962 -723 -1256 -1621 -12 -38 -33 -76 -48
-90 -51 -47 -178 -206 -243 -305 -408 -619 -462 -1409 -141 -2079 206 -430
555 -781 986 -990 276 -135 535 -199 845 -212 511 -21 1003 143 1410 467 97
78 262 244 337 340 132 169 266 412 332 604 134 383 156 808 62 1198 -85 352
-262 686 -501 941 -54 59 -63 75 -100 181 -76 219 -116 318 -217 536 -40 85
-150 276 -213 370 -178 265 -384 463 -601 579 -68 36 -104 49 -256 95 -87 27
-276 20 -396 -14z m458 -292 c39 -9 59 -18 131 -59 19 -10 49 -28 68 -38 18
-11 56 -35 83 -55 28 -20 55 -36 60 -36 14 0 254 -251 288 -301 16 -24 48 -69
71 -99 22 -31 60 -89 84 -130 23 -41 48 -82 55 -90 7 -8 34 -62 60 -119 26
-57 62 -135 80 -173 18 -37 32 -68 29 -68 -2 0 -45 27 -96 61 -237 156 -525
265 -833 316 -150 24 -476 24 -629 0 -299 -48 -592 -158 -827 -312 -55 -36
-101 -65 -104 -65 -4 0 135 297 158 337 59 104 120 204 128 208 5 4 34 43 64
89 57 87 290 333 337 356 15 7 36 20 45 29 27 25 126 82 243 141 10 5 26 7 34
4 8 -3 17 0 21 6 7 11 403 9 450 -2z m-89 -2048 c424 -107 623 -578 402 -954
-50 -85 -144 -179 -226 -226 l-61 -35 -3 -265 c-3 -292 -4 -297 -72 -368 -53
-57 -101 -77 -186 -77 -85 0 -133 20 -186 77 -68 71 -69 76 -72 365 l-3 261
-66 39 c-135 79 -242 211 -289 357 -76 239 -14 493 164 663 161 155 387 216
598 163z"/>
</g>
</svg>
