<?xml version="1.0" standalone="no"?>
<!DOCTYPE svg PUBLIC "-//W3C//DTD SVG 20010904//EN"
 "http://www.w3.org/TR/2001/REC-SVG-20010904/DTD/svg10.dtd">
<svg version="1.0" xmlns="http://www.w3.org/2000/svg"
 width="2100.000000pt" height="1500.000000pt" viewBox="0 0 2100.000000 1500.000000"
 preserveAspectRatio="xMidYMid meet">
<metadata>
Created by potrace 1.16, written by Peter Selinger 2001-2019
</metadata>
<g transform="translate(0.000000,1500.000000) scale(0.100000,-0.100000)"
fill="#000000" stroke="none">
<path d="M10397 12510 c-270 -34 -541 -135 -754 -282 -695 -477 -935 -1365
-577 -2128 155 -330 468 -641 799 -796 549 -256 1164 -209 1672 127 227 151
461 422 577 669 224 478 219 1025 -15 1491 -157 314 -462 613 -780 763 -123
59 -277 109 -415 136 -122 24 -391 35 -507 20z"/>
<path d="M8165 8803 c-78 -10 -197 -38 -260 -60 -392 -140 -674 -457 -778
-873 -21 -84 -21 -96 -24 -1620 -3 -1152 -1 -1542 8 -1563 26 -62 -244 -57
3389 -57 3633 0 3363 -5 3389 57 9 21 11 411 8 1563 -3 1524 -3 1536 -24 1620
-118 473 -446 796 -930 917 -63 16 -240 17 -2408 19 -1287 0 -2353 -1 -2370
-3z"/>
</g>
</svg>
